<svg xmlns="http://www.w3.org/2000/svg" xmlns:xlink="http://www.w3.org/1999/xlink" width="500" zoomAndPan="magnify" viewBox="0 0 375 374.999991" height="500" preserveAspectRatio="xMidYMid meet" version="1.0"><defs><clipPath id="0d82fd0d8c"><path d="M 1.019531 99 L 198 99 L 198 294.976562 L 1.019531 294.976562 Z M 1.019531 99 " clip-rule="nonzero"/></clipPath><clipPath id="76cbc395ed"><path d="M 178 79.726562 L 375 79.726562 L 375 276 L 178 276 Z M 178 79.726562 " clip-rule="nonzero"/></clipPath></defs><g clip-path="url(#0d82fd0d8c)"><path fill="#0974f1" d="M 197.710938 138.5 L 197.804688 99.253906 L 99.605469 99.046875 C 45.335938 98.949219 1.277344 142.777344 1.171875 196.980469 C 1.039062 251.191406 44.914062 295.234375 99.175781 295.335938 C 139.414062 295.410156 174.074219 271.292969 189.289062 236.679688 L 143.097656 236.574219 C 132.285156 248.546875 116.679688 256.117188 99.253906 256.085938 C 66.71875 256.019531 40.382812 229.585938 40.460938 197.074219 C 40.515625 164.53125 66.972656 138.242188 99.507812 138.3125 Z M 197.710938 138.5 " fill-opacity="1" fill-rule="nonzero"/></g><g clip-path="url(#76cbc395ed)"><path fill="#9fccfa" d="M 209.527344 236.542969 C 202.710938 252.0625 191.949219 265.441406 178.574219 275.46875 L 178.574219 275.746094 L 276.796875 275.949219 C 331.027344 276.066406 375.085938 232.203125 375.214844 178.011719 C 375.320312 123.808594 331.460938 79.777344 277.214844 79.664062 C 254.984375 79.601562 234.515625 86.957031 218.023438 99.359375 L 217.964844 138.371094 L 233.265625 138.394531 C 244.09375 126.417969 259.699219 118.882812 277.125 118.90625 C 309.65625 118.988281 335.992188 145.40625 335.917969 177.917969 C 335.839844 210.460938 309.40625 236.765625 276.863281 236.679688 Z M 209.527344 236.542969 " fill-opacity="1" fill-rule="nonzero"/></g></svg>